<svg id="Layer_2" data-name="Layer 2" xmlns="http://www.w3.org/2000/svg" xmlns:xlink="http://www.w3.org/1999/xlink" viewBox="0 0 445.36 407.37"><defs><style>.cls-1{fill:url(#radial-gradient);}.cls-2{fill:url(#radial-gradient-2);}.cls-3{fill:url(#radial-gradient-3);}.cls-4{fill:url(#radial-gradient-4);}.cls-5{fill:url(#radial-gradient-5);}.cls-6{font-size:74.47px;fill:#009f47;font-family:OptimusPrincepsSemiBold;}.cls-7{letter-spacing:-0.03em;}.cls-8{fill:#8bc53f;}</style><radialGradient id="radial-gradient" cx="334.13" cy="332.65" r="121.74" gradientUnits="userSpaceOnUse"><stop offset="0" stop-color="#4bb649"/><stop offset="0.2" stop-color="#46ad45"/><stop offset="0.54" stop-color="#379539"/><stop offset="0.96" stop-color="#1f6d27"/><stop offset="1" stop-color="#1c6925"/></radialGradient><radialGradient id="radial-gradient-2" cx="493.53" cy="325.9" r="94.85" xlink:href="#radial-gradient"/><radialGradient id="radial-gradient-3" cx="407.32" cy="280.28" r="19.42" xlink:href="#radial-gradient"/><radialGradient id="radial-gradient-4" cx="452.05" cy="325.9" r="53.49" xlink:href="#radial-gradient"/><radialGradient id="radial-gradient-5" cx="360.8" cy="329.79" r="73.34" xlink:href="#radial-gradient"/></defs><path class="cls-1" d="M399.76,219.54s-113.61-71.13-163.5,35.56c-22.3,47.71,9.86,100.24,53.84,132.38C324.41,412.55,379,451.19,439.26,469c0,0-188.81-116.56-151.63-205.47C295.9,243.72,325.66,198.3,399.76,219.54Z" transform="translate(-205.92 -196.32)"/><path class="cls-2" d="M430.87,235.84s127.43-66.67,139.78,46.92c6.87,63.24-86.44,124-154.6,152.63,0,0,114.53-86.68,114.59-145.22C530.67,261.77,501.45,216.44,430.87,235.84Z" transform="translate(-205.92 -196.32)"/><path class="cls-3" d="M426.74,280.29a19.42,19.42,0,1,1-19.42-19.43,19.41,19.41,0,0,1,19.42,19.43Z" transform="translate(-205.92 -196.32)"/><path class="cls-4" d="M469.35,256.66a.9.9,0,0,0-1.53.49c-4.52,26.6-32.06,49-39.55,65.49-11.06,24.35-5.59,53,5.82,71.94.4.65,1.59,1.23,1.37.49-5.82-20.05-4.52-66.66,27.19-94.17-16.1,19-30.09,51.46-24.27,92.56.11.8,1.08.75,1.2,0,5.61-35.3,38.92-53.34,42.15-86.36,1.26-12.71-7.59-44-12.38-50.39Z" transform="translate(-205.92 -196.32)"/><path class="cls-5" d="M368,303.44c-17.85-7-54.12-19.07-47.66-63.16.1-.64-.54-.2-.89.38-15.21,25.57-11.42,58-4.2,75.4,6.44,15.57,25.23,41.43,50.15,45,18.44,2.64,35.69,18.44,18.78,58.58,8.22-4.62,14.14-39.87,10.67-51.78-7.44-25.56-47.24-24.92-60.18-51.13-.28-.59-2.24-5.83-1.82-5.33,25.89,31.39,56.18,26.68,65.89,52.25,7.41,19.51-5.21,47.14-2.33,47.25,2.66.1,16.16-31,16.24-42.4.17-23.3-14.88-53.39-44.65-65Z" transform="translate(-205.92 -196.32)"/><text class="cls-6" transform="translate(0.68 355.2)">p<tspan class="cls-7" x="33.96" y="0">H</tspan><tspan x="93.69" y="0">arma </tspan><tspan class="cls-8" x="328.87" y="0">life</tspan></text><text x="-205.92" y="-196.32"/></svg>